<?xml version="1.0" encoding="UTF-8"?>
<svg id="Warstwa_2" data-name="Warstwa 2" xmlns="http://www.w3.org/2000/svg" version="1.1" viewBox="0 0 166.5 35">
  <defs>
    <style>
      .cls-1 {
        fill: #000;
      }

      .cls-1, .cls-2, .cls-3 {
        stroke-width: 0px;
      }

      .cls-2 {
        fill: #3d97d3;
      }

      .cls-3 {
        fill: #fff;
      }
    </style>
  </defs>
  <g>
    <path class="cls-2" d="M35.1,18.8v-2.5c0-.2-.1-.4-.3-.5l-3.2-1c-.1,0-.2-.1-.3-.3l-1.2-2.9c0-.1,0-.3,0-.4l1.5-3c0-.2,0-.4,0-.6l-1.7-1.7c-.2-.2-.4-.2-.6,0l-3,1.5c-.1,0-.3,0-.4,0l-2.9-1.2c-.1,0-.2-.2-.3-.3l-1-3.2c0-.2-.3-.3-.5-.3h-2.5c-.2,0-.4.1-.5.3l-1,3.2c0,.1-.1.2-.3.3l-2.9,1.2c-.1,0-.3,0-.4,0l-3-1.5c-.2,0-.4,0-.6,0l-1.7,1.7c-.2.2-.2.4,0,.6l1.5,3c0,.1,0,.3,0,.4l-1.2,2.9c0,.1-.2.2-.3.3l-3.2,1c-.2,0-.3.3-.3.5v2.5c0,.2.1.4.3.5l3.2,1c.1,0,.2.1.3.3l1.2,2.9c0,.1,0,.3,0,.4l-1.5,3c0,.2,0,.4,0,.6l1.7,1.7c.2.2.4.2.6,0l3-1.5c.1,0,.3,0,.4,0l2.9,1.2c.1,0,.2.2.3.3l1,3.2c0,.2.3.3.5.3h2.5c.2,0,.4-.1.5-.3l1-3.2c0-.1.1-.2.3-.3l2.9-1.2c.1,0,.3,0,.4,0l3,1.5c.2,0,.4,0,.6,0l1.7-1.7c.2-.2.2-.4,0-.6l-1.5-3c0-.1,0-.3,0-.4l1.2-2.9c0-.1.2-.2.3-.3l3.2-1c.2,0,.3-.3.3-.5Z"/>
    <path class="cls-3" d="M28.1,23.4c0-.2-.1-.3-.2-.5-1-1.6-2.1-3.2-3.1-4.8-.2-.3-.2-.5-.2-.6,0,0,0-.1,0-.2,0-.2.3-.3.7-.4.5-.1,1-.3,1.5-.5,0,0,.1,0,.2,0,.2,0,.5-.2.6-.3.6-.5.7-1.4,0-2,0,0-.2-.2-.3-.2,0,0-.1,0-.2-.1-1-.8-2.1-1.4-3.3-1.8-.2,0-.4-.1-.6-.2-.9-.3-.9-.4-.9-1.5,0-.5-.2-.9-.4-1.3-.2-.3-.4-.6-.6-.8-.3-.3-.7-.5-1.2-.5-.2,0-.3,0-.5,0-.2,0-.3,0-.5,0-.4,0-.8.3-1.2.5-.3.2-.5.5-.6.8-.2.4-.4.9-.4,1.3,0,1.2,0,1.3-.9,1.5-.2,0-.4.1-.6.2-1.2.4-2.3,1-3.3,1.8,0,0-.1,0-.2.1,0,0-.2.1-.3.2-.6.6-.6,1.5,0,2,.2.2.4.3.6.3,0,0,.1,0,.2,0,.5.2,1,.3,1.5.5.4,0,.6.2.7.4,0,0,0,.1,0,.2,0,.2,0,.4-.2.6-1,1.6-2.1,3.2-3.1,4.8-.1.2-.2.3-.2.5,0,.2,0,.3,0,.5,0,.8.6,1.5,1.5,1.6,0,0,.2,0,.3,0,0,0,0,0,0,0,.7,0,1.4,0,2.1,0,0,0,0,0,0,0,.3,0,.6,0,.8,0,.6,0,1.2-.3,1.6-.9.2-.2.4-.4.5-.7,0-.1.2-.3.2-.4.2-.3.4-.7.7-1,.2-.2.3-.5.5-.7,0,0,.1-.2.2-.3,0,.1.2.2.2.3.2.2.3.5.5.7.2.3.4.7.7,1,0,.1.2.3.2.4.2.3.3.5.5.7.4.5.9.8,1.6.9.3,0,.5,0,.8,0,0,0,0,0,0,0,.7,0,1.4,0,2.1,0,0,0,0,0,0,0,0,0,.2,0,.3,0,.9,0,1.5-.8,1.5-1.6,0-.2,0-.3,0-.5Z"/>
  </g>
  <path class="cls-1" d="M44.8,22.7h1.5v-4.4h5.4v-1.4h-5.4v-2.9h5.9v-1.4h-7.4v10.1ZM57.2,14.9c-.8,0-1.8.2-2.9.8l.5,1.1c.7-.3,1.4-.6,2.2-.6,1.5,0,2,1,2,2v.2c-.7-.3-1.5-.4-2.3-.4-1.7,0-3,1-3,2.5s1.2,2.4,2.8,2.4,2-.4,2.5-1.2v1h1.4v-4.6c0-1.9-1.1-3.2-3.2-3.2ZM59,20.3c-.3.9-1.3,1.4-2.3,1.4s-1.7-.5-1.7-1.3.9-1.4,1.9-1.4,1.5.1,2.1.3v1ZM66.6,14.9c-1,0-2,.5-2.4,1.3v-1.1h-1.5v7.6h1.5v-4.9c.1-.9,1-1.6,2.1-1.6s1.8.8,1.8,1.9v4.6h1.4v-4.8c0-1.7-1.2-2.9-2.9-2.9ZM76.6,13.8c1,0,2,.5,2.7,1.2l1-1c-1-1-2.3-1.6-3.7-1.6-2.8,0-5.3,2.4-5.3,5.2s2.4,5.2,5.3,5.2,2.8-.6,3.7-1.6l-1-1c-.7.7-1.6,1.2-2.7,1.2-2,0-3.7-1.8-3.7-3.9s1.7-3.9,3.7-3.9ZM81.9,22.7h1.4v-10.3h-1.4v10.3ZM89.3,14.9c-2.2,0-4,1.8-4,4s1.8,4,4,4,4-1.8,4-4-1.8-4-4-4ZM89.3,21.6c-1.4,0-2.6-1.2-2.6-2.7s1.2-2.7,2.6-2.7,2.5,1.2,2.5,2.7-1.2,2.7-2.5,2.7ZM95.1,22.7h1.5v-7.6h-1.5v7.6ZM95.8,12.1c-.5,0-.9.4-.9.9s.4.9.9.9.9-.4.9-.9-.4-.9-.9-.9ZM101.9,18.3c-1.3-.4-1.8-.6-1.8-1.2s.6-.9,1.3-.9,1.4.3,2.2.7l.6-1.1c-.8-.5-1.8-.9-2.8-.9-1.6,0-2.8.9-2.8,2.3,0,1.2.9,1.7,2.6,2.2.9.3,1.7.5,1.7,1.2s-.6,1-1.4,1-1.8-.3-2.6-.9l-.7,1c.9.7,2.1,1.1,3.3,1.1,1.7,0,2.9-.9,2.9-2.4s-1.3-1.9-2.6-2.3ZM109.1,21.6c-.4,0-.8-.4-.8-.9v-4.4h1.8v-1.2h-1.8v-2.1h-1.4v2.1h-1.1v1.2h1.1v4.5c0,1.2.8,2.1,2,2.1s1.1-.2,1.5-.5l-.5-1c-.2.2-.5.3-.8.3ZM115.5,14.9c-2.1,0-3.8,1.7-3.8,4s1.8,4,3.9,4,2.4-.5,3.1-1.2l-.9-.9c-.5.5-1.4.8-2.2.8-1.3,0-2.2-.9-2.4-2.2h6c0-2.7-1.3-4.5-3.7-4.5ZM113.1,18.3c.2-1.2,1.2-2,2.4-2s2,.9,2.2,2h-4.6ZM122.5,16.6v-1.5h-1.5v7.6h1.5v-4.3c.1-1.3,1.3-2.2,2.8-2.2v-1.3c-1.3,0-2.3.6-2.8,1.6ZM134.6,13.8v-1.2h-7.8v1.4h5.7l-5.8,7.6v1.2h8v-1.4h-5.9l5.8-7.6ZM140.2,14.9c-2.2,0-4,1.8-4,4s1.8,4,4,4,4-1.8,4-4-1.8-4-4-4ZM140.2,21.6c-1.4,0-2.6-1.2-2.6-2.7s1.2-2.7,2.6-2.7,2.5,1.2,2.5,2.7-1.2,2.7-2.5,2.7ZM149.9,14.9c-1,0-2,.5-2.4,1.3v-1.1h-1.5v7.6h1.5v-4.9c.1-.9,1-1.6,2.1-1.6s1.8.8,1.8,1.9v4.6h1.4v-4.8c0-1.7-1.2-2.9-2.9-2.9ZM158.5,21.6c-1.3,0-2.2-.9-2.4-2.2h6c0-2.7-1.3-4.5-3.7-4.5s-3.8,1.7-3.8,4,1.8,4,3.9,4,2.4-.5,3.1-1.2l-.9-.9c-.5.5-1.4.8-2.2.8ZM158.5,16.2c1.3,0,2,.9,2.2,2h-4.6c.2-1.2,1.2-2,2.4-2Z"/>
</svg>