<?xml version="1.0" encoding="UTF-8"?>
<svg id="Warstwa_4" data-name="Warstwa 4" xmlns="http://www.w3.org/2000/svg" version="1.1" viewBox="0 0 500 500">
  <defs>
    <style>
      .cls-1 {
        fill: #3d97d3;
      }

      .cls-1, .cls-2 {
        stroke-width: 0px;
      }

      .cls-2 {
        fill: #fff;
      }
    </style>
  </defs>
  <path class="cls-1" d="M496.9,269.9v-39.7c0-3.4-2.2-6.5-5.5-7.5l-51.8-16.8c-2.2-.7-4-2.4-4.9-4.5l-19.6-47.4c-.9-2.1-.8-4.6.3-6.6l24.8-48.5c1.6-3.1,1-6.8-1.5-9.2l-28.1-28.1c-2.4-2.4-6.2-3-9.2-1.5l-48.5,24.8c-2.1,1.1-4.5,1.2-6.6.3l-47.4-19.6c-2.1-.9-3.8-2.7-4.5-4.9l-16.8-51.8c-1.1-3.3-4.1-5.5-7.5-5.5h-39.7c-3.4,0-6.5,2.2-7.5,5.5l-16.8,51.8c-.7,2.2-2.4,4-4.5,4.9l-47.4,19.6c-2.1.9-4.6.8-6.6-.3l-48.5-24.8c-3.1-1.6-6.8-1-9.2,1.5l-28.1,28.1c-2.4,2.4-3,6.2-1.5,9.2l24.8,48.5c1.1,2.1,1.2,4.5.3,6.6l-19.6,47.4c-.9,2.1-2.7,3.8-4.9,4.5l-51.8,16.8c-3.3,1.1-5.5,4.1-5.5,7.5v39.7c0,3.4,2.2,6.5,5.5,7.5l51.8,16.8c2.2.7,4,2.4,4.9,4.5l19.6,47.4c.9,2.1.8,4.6-.3,6.6l-24.8,48.5c-1.6,3.1-1,6.8,1.5,9.2l28.1,28.1c2.4,2.4,6.2,3,9.2,1.5l48.5-24.8c2.1-1.1,4.5-1.2,6.6-.3l47.4,19.6c2.1.9,3.8,2.7,4.5,4.9l16.8,51.8c1.1,3.3,4.1,5.5,7.5,5.5h39.7c3.4,0,6.5-2.2,7.5-5.5l16.8-51.8c.7-2.2,2.4-4,4.5-4.9l47.4-19.6c2.1-.9,4.6-.8,6.6.3l48.5,24.8c3.1,1.6,6.8,1,9.2-1.5l28.1-28.1c2.4-2.4,3-6.2,1.5-9.2l-24.8-48.5c-1.1-2.1-1.2-4.5-.3-6.6l19.6-47.4c.9-2.1,2.7-3.8,4.9-4.5l51.8-16.8c3.3-1.1,5.5-4.1,5.5-7.5Z"/>
  <path class="cls-2" d="M385.3,343c-.8-2.6-2-5.2-3.6-7.7-16.6-25.8-33.5-51.5-50.1-77.3-2.6-4.1-3.9-7.3-3.9-9.9,0-1,.3-1.9.6-2.7,1.4-2.9,5-4.9,11.1-6.4,8.3-2.1,16.6-4.3,24.7-7.3,1-.3,2-.6,3-.9,3.9-1.2,7.4-3,10.1-5.5,10.1-8.1,10.7-23.2.7-32.4-1.2-1.2-2.6-2.4-4.1-3.6-.8-.6-1.6-1.2-2.4-1.9-15.9-12.7-33.4-22.8-52.7-29.3-3.4-1.2-6.8-2.3-10.3-3.2-14.2-4.5-14.3-6.3-15-24.9-.3-7.3-2.8-14.5-6.7-21-2.7-4.8-6.3-8.9-10.5-12.2-5.6-4.7-12-7.9-18.6-8.7-2.5-.3-5-.5-7.5-.4-2.4,0-4.9,0-7.5.4-6.6.9-13.1,4.1-18.6,8.7-4.2,3.3-7.8,7.4-10.5,12.2-4,6.4-6.5,13.7-6.7,21-.7,18.6-.8,20.4-15,24.9-3.5.9-6.9,2-10.3,3.2-19.4,6.5-36.8,16.6-52.7,29.3-.8.6-1.6,1.2-2.4,1.9-1.5,1.2-2.9,2.3-4.1,3.6-10,9.2-9.4,24.3.7,32.4,2.8,2.4,6.2,4.2,10.1,5.5,1,.3,2,.6,3,.9,8,2.9,16.4,5.1,24.7,7.3,6,1.6,9.7,3.5,11.1,6.4.4.8.6,1.8.6,2.7,0,2.6-1.3,5.9-3.9,9.9-16.7,25.8-33.5,51.5-50.1,77.3-1.6,2.5-2.8,5.1-3.6,7.7-.8,2.6-1.2,5.1-1.2,7.7-.1,12.8,9.3,24,24,25.5,1.4.2,2.8.2,4.3.2.5,0,1,0,1.4,0,11.5.3,22.9.4,34.4.1,0,0,0,0,0,0,4.7.3,9.2.1,13.3-.5,10.1-1.1,18.8-5.4,25.1-13.7,3-3.3,5.7-7.2,8.1-11.7,1.2-2.3,2.5-4.5,3.8-6.7,3.6-5.6,7.2-11.2,10.8-16.8,2.5-3.7,5-7.4,7.6-11.3,1.1-1.4,2.3-3,3.7-4.9,1.4,1.9,2.6,3.5,3.7,4.9,2.6,3.9,5.1,7.6,7.6,11.3,3.6,5.6,7.2,11.2,10.8,16.8,1.3,2.2,2.6,4.4,3.8,6.7,2.4,4.5,5.1,8.4,8.1,11.7,6.3,8.3,15.1,12.6,25.1,13.7,4.1.7,8.6.9,13.3.5,0,0,0,0,0,0,11.5.2,22.9.1,34.4-.1.5,0,1,0,1.4,0,1.5,0,2.9,0,4.3-.2,14.7-1.5,24.1-12.7,24-25.5,0-2.6-.4-5.2-1.2-7.7Z"/>
</svg>